<svg width="11" height="12" viewBox="0 0 11 12" fill="none" xmlns="http://www.w3.org/2000/svg">
<path d="M1 4.33333H10M1 4.33333V9.22233C1 9.84461 1 10.1556 1.12262 10.3933C1.23048 10.6023 1.40245 10.7725 1.61414 10.879C1.85455 11 2.16943 11 2.79826 11H8.20174C8.83056 11 9.14499 11 9.38541 10.879C9.59709 10.7725 9.76964 10.6023 9.8775 10.3933C10 10.1558 10 9.84527 10 9.22421V4.33333M1 4.33333V3.889C1 3.26672 1 2.95534 1.12262 2.71767C1.23048 2.5086 1.40245 2.33874 1.61414 2.23222C1.85479 2.11111 2.17005 2.11111 2.80011 2.11111H3.25M10 4.33333V3.88717C10 3.26611 10 2.95511 9.8775 2.71767C9.76964 2.5086 9.59709 2.33874 9.38541 2.23222C9.14476 2.11111 8.83017 2.11111 8.20011 2.11111H7.75M7.75 1V2.11111M7.75 2.11111H3.25M3.25 1V2.11111" stroke="#FF9D43" stroke-width="2" stroke-linecap="round" stroke-linejoin="round"/>
</svg>
