<svg width="10" height="10" viewBox="0 0 10 10" fill="none" xmlns="http://www.w3.org/2000/svg">
<g clip-path="url(#clip0_137_27)">
<path d="M5.03452 0.73976L5.03452 0.739748C5.02864 0.727847 5.02372 0.72476 5.02137 0.723369C5.01725 0.720922 5.00988 0.718262 5.00002 0.718262C4.99016 0.718262 4.98284 0.720921 4.97877 0.723335C4.97648 0.724689 4.97161 0.727719 4.96578 0.73956L4.96568 0.73976L3.83783 3.02509C3.83782 3.0251 3.83782 3.02511 3.83781 3.02512C3.68653 3.33168 3.39407 3.54407 3.05584 3.59318C3.0558 3.59318 3.05576 3.59319 3.05572 3.59319L0.533724 3.95968L0.533547 3.9597C0.520415 3.9616 0.515996 3.96532 0.513994 3.96708C0.510433 3.97021 0.505639 3.97636 0.50259 3.98575C0.49954 3.99513 0.499789 4.00298 0.500849 4.00769C0.501456 4.01039 0.50289 4.01606 0.51241 4.02535L2.33732 5.80416L2.33742 5.80426C2.58191 6.04271 2.69384 6.38655 2.63585 6.72362M5.03452 0.73976L0.461822 3.46487C0.02002 3.52891 -0.156242 4.07167 0.163324 4.38331L1.98831 6.1622C2.11514 6.2859 2.17313 6.46425 2.14309 6.63884L1.71234 9.15073C1.63683 9.59065 2.09866 9.92628 2.49374 9.71852L4.74947 8.53267C4.90634 8.45027 5.09386 8.45027 5.25073 8.53267L7.50646 9.71852M5.03452 0.73976L6.16237 3.02509L5.03452 0.73976ZM2.63585 6.72362L2.14311 6.63884L2.6359 6.72335L2.63585 6.72362ZM2.63585 6.72362L2.20515 9.23524L2.20514 9.23532C2.2029 9.24835 2.20506 9.25373 2.20614 9.25625C2.20805 9.26067 2.21247 9.26719 2.2205 9.27303C2.22853 9.27886 2.23608 9.28104 2.24085 9.28149C2.24356 9.28174 2.24932 9.28214 2.26102 9.27598L2.26108 9.27595L4.51681 8.0901L4.51696 8.09001C4.8194 7.93115 5.1808 7.93115 5.48323 8.09001L5.48339 8.0901L7.739 9.27589M7.739 9.27589L7.50646 9.71852M7.739 9.27589L7.73912 9.27595L7.50646 9.71852M7.739 9.27589C7.75072 9.28204 7.75653 9.28166 7.7593 9.2814C7.76413 9.28095 7.77171 9.27875 7.77975 9.27291C7.78778 9.26708 7.79217 9.26058 7.79407 9.25619C7.79514 9.25371 7.7973 9.24835 7.79506 9.23532L7.79505 9.23524L7.36435 6.72362M7.50646 9.71852C7.90154 9.92607 8.36337 9.59065 8.28786 9.15073L7.36435 6.72362M8.01189 6.1622L9.83688 4.38331C10.1564 4.07188 9.98018 3.52912 9.53838 3.46487M8.01189 6.1622L6.61076 2.80384C6.68919 2.96279 6.84084 3.07292 7.01627 3.09837M8.01189 6.1622C7.88506 6.2859 7.82707 6.46425 7.85711 6.63884M8.01189 6.1622L7.85711 6.63884M9.53838 3.46487L7.01627 3.09837M9.53838 3.46487L9.46648 3.95968M9.53838 3.46487L9.46642 3.95967M7.01627 3.09837L6.94448 3.59319M7.01627 3.09837L6.94436 3.59318C6.60613 3.54407 6.31367 3.33168 6.16239 3.02512L6.94448 3.59319M6.94448 3.59319L9.46642 3.95967M6.94448 3.59319L9.46648 3.95968M9.46642 3.95967C9.46644 3.95967 9.46646 3.95967 9.46648 3.95968M9.46642 3.95967L7.36435 6.72362M9.46648 3.95968C9.47961 3.96159 9.48408 3.96533 9.48613 3.96713C9.48974 3.97031 9.49456 3.9765 9.49761 3.9859C9.50066 3.9953 9.5004 4.00313 9.49936 4.00778C9.49876 4.01042 9.49737 4.01601 9.48791 4.02523L9.48787 4.02527L7.66288 5.80416L7.66278 5.80426C7.41829 6.04271 7.30636 6.38655 7.36435 6.72362M7.36435 6.72362L7.85711 6.63884M7.36435 6.72362L7.85711 6.63884" fill="white" stroke="#FF9D43"/>
</g>
<defs>
<clipPath id="clip0_137_27">
<rect width="10" height="10" fill="white"/>
</clipPath>
</defs>
</svg>
