<svg width="10" height="10" viewBox="0 0 10 10" fill="none" xmlns="http://www.w3.org/2000/svg">
<g clip-path="url(#clip0_137_19)">
<path d="M5.48289 0.518481L6.61076 2.80384C6.68919 2.96279 6.84084 3.07292 7.01627 3.09837L9.53838 3.46487C9.98018 3.52912 10.1564 4.07188 9.83688 4.38331L8.01189 6.1622C7.88506 6.2859 7.82707 6.46425 7.85711 6.63884L8.28786 9.15073C8.36337 9.59065 7.90154 9.92607 7.50646 9.71852L5.25073 8.53267C5.09386 8.45027 4.90634 8.45027 4.74947 8.53267L2.49374 9.71852C2.09866 9.92628 1.63683 9.59065 1.71234 9.15073L2.14309 6.63884C2.17313 6.46425 2.11514 6.2859 1.98831 6.1622L0.163324 4.38331C-0.156242 4.07167 0.02002 3.52891 0.461822 3.46487L2.98393 3.09837C3.15936 3.07292 3.31101 2.96279 3.38944 2.80384L4.51731 0.518481C4.71464 0.118189 5.28535 0.118189 5.48289 0.518481Z" fill="#FF9D43"/>
</g>
<defs>
<clipPath id="clip0_137_19">
<rect width="10" height="10" fill="white"/>
</clipPath>
</defs>
</svg>
